{
	"asset":{
		"generator":"Khronos glTF Blender I/O v3.5.30",
		"version":"2.0"
	},
	"extensionsUsed":[
		"KHR_materials_specular",
		"KHR_materials_ior"
	],
	"scene":0,
	"scenes":[
		{
			"name":"Scene",
			"nodes":[
				0,
				1,
				2,
				3,
				4,
				5,
				6
			]
		}
	],
	"nodes":[
		{
			"mesh":0,
			"name":"Plano.001"
		},
		{
			"mesh":1,
			"name":"Plano.002"
		},
		{
			"mesh":2,
			"name":"Plano.003"
		},
		{
			"mesh":3,
			"name":"Texto",
			"rotation":[
				0.5,
				0.5,
				-0.4999999403953552,
				0.5000000596046448
			],
			"scale":[
				0.5,
				0.5,
				0.5
			],
			"translation":[
				0.4890665113925934,
				0.0005055428482592106,
				0.05665799230337143
			]
		},
		{
			"mesh":4,
			"name":"Texto.001",
			"rotation":[
				0.5,
				0.5,
				-0.4999999403953552,
				0.5000000596046448
			],
			"scale":[
				0.5,
				0.5,
				0.5
			],
			"translation":[
				0.02616828680038452,
				0.0005055130459368229,
				0.39824557304382324
			]
		},
		{
			"mesh":5,
			"name":"Texto.002",
			"rotation":[
				0.5,
				0.5,
				-0.4999999403953552,
				0.5000000596046448
			],
			"scale":[
				0.5,
				0.5,
				0.5
			],
			"translation":[
				0.44011345505714417,
				0.04329823702573776,
				-0.2534005045890808
			]
		},
		{
			"mesh":6,
			"name":"TQ_ARD-node"
		}
	],
	"materials":[
		{
			"doubleSided":true,
			"name":"Material.001",
			"pbrMetallicRoughness":{
				"baseColorFactor":[
					0.4902293384075165,
					0.021092573180794716,
					0,
					1
				],
				"metallicFactor":0
			}
		},
		{
			"doubleSided":true,
			"extensions":{
				"KHR_materials_specular":{
					"specularColorFactor":[
						0,
						0,
						0
					]
				},
				"KHR_materials_ior":{
					"ior":0
				}
			},
			"name":"TQ_ARD_front",
			"pbrMetallicRoughness":{
				"baseColorTexture":{
					"index":0
				},
				"metallicFactor":0,
				"roughnessFactor":0.5
			}
		},
		{
			"doubleSided":true,
			"extensions":{
				"KHR_materials_specular":{
					"specularColorFactor":[
						0,
						0,
						0
					]
				},
				"KHR_materials_ior":{
					"ior":0
				}
			},
			"name":"back-dil",
			"pbrMetallicRoughness":{
				"baseColorFactor":[
					0.5189545154571533,
					0.32856884598731995,
					0.2104848474264145,
					1
				],
				"metallicFactor":0
			}
		},
		{
			"doubleSided":true,
			"extensions":{
				"KHR_materials_specular":{
					"specularColorFactor":[
						0,
						0,
						0
					]
				},
				"KHR_materials_ior":{
					"ior":0
				}
			},
			"name":"TQ_ARD_edge",
			"pbrMetallicRoughness":{
				"baseColorTexture":{
					"index":1
				},
				"metallicFactor":0,
				"roughnessFactor":0.5
			}
		}
	],
	"meshes":[
		{
			"name":"Plano",
			"primitives":[
				{
					"attributes":{
						"POSITION":0,
						"TEXCOORD_0":1,
						"NORMAL":2
					},
					"indices":3,
					"material":0
				}
			]
		},
		{
			"name":"Plano.001",
			"primitives":[
				{
					"attributes":{
						"POSITION":4,
						"TEXCOORD_0":5,
						"NORMAL":6
					},
					"indices":7,
					"material":0
				}
			]
		},
		{
			"name":"Plano.002",
			"primitives":[
				{
					"attributes":{
						"POSITION":8,
						"TEXCOORD_0":9,
						"NORMAL":10
					},
					"indices":11,
					"material":0
				}
			]
		},
		{
			"name":"Texto",
			"primitives":[
				{
					"attributes":{
						"POSITION":12,
						"TEXCOORD_0":13,
						"NORMAL":14
					},
					"indices":15,
					"material":0
				}
			]
		},
		{
			"name":"Texto.001",
			"primitives":[
				{
					"attributes":{
						"POSITION":16,
						"TEXCOORD_0":17,
						"NORMAL":18
					},
					"indices":19,
					"material":0
				}
			]
		},
		{
			"name":"Texto.002",
			"primitives":[
				{
					"attributes":{
						"POSITION":20,
						"TEXCOORD_0":21,
						"NORMAL":22
					},
					"indices":23,
					"material":0
				}
			]
		},
		{
			"name":"TQ_ARD-geom",
			"primitives":[
				{
					"attributes":{
						"POSITION":24,
						"TEXCOORD_0":25,
						"NORMAL":26
					},
					"indices":27,
					"material":1
				},
				{
					"attributes":{
						"POSITION":28,
						"TEXCOORD_0":29,
						"NORMAL":30
					},
					"indices":31,
					"material":2
				},
				{
					"attributes":{
						"POSITION":32,
						"TEXCOORD_0":33,
						"NORMAL":34
					},
					"indices":35,
					"material":3
				}
			]
		}
	],
	"textures":[
		{
			"sampler":0,
			"source":0
		},
		{
			"sampler":0,
			"source":1
		}
	],
	"images":[
		{
			"bufferView":28,
			"mimeType":"image/jpeg",
			"name":"3-01"
		},
		{
			"bufferView":37,
			"mimeType":"image/png",
			"name":"TQ_ARD-I1"
		}
	],
	"accessors":[
		{
			"bufferView":0,
			"componentType":5126,
			"count":144,
			"max":[
				0.44043970108032227,
				0.0017308921087533236,
				0.23558755218982697
			],
			"min":[
				0.3743883967399597,
				-6.257323548197746e-08,
				-0.2292952984571457
			],
			"type":"VEC3"
		},
		{
			"bufferView":1,
			"componentType":5126,
			"count":144,
			"type":"VEC2"
		},
		{
			"bufferView":2,
			"componentType":5126,
			"count":144,
			"type":"VEC3"
		},
		{
			"bufferView":3,
			"componentType":5123,
			"count":216,
			"type":"SCALAR"
		},
		{
			"bufferView":4,
			"componentType":5126,
			"count":144,
			"max":[
				0.3605883717536926,
				0.0017310113180428743,
				0.32140684127807617
			],
			"min":[
				-0.38832738995552063,
				5.675246939063072e-08,
				0.2553555965423584
			],
			"type":"VEC3"
		},
		{
			"bufferView":5,
			"componentType":5126,
			"count":144,
			"type":"VEC2"
		},
		{
			"bufferView":6,
			"componentType":5126,
			"count":144,
			"type":"VEC3"
		},
		{
			"bufferView":7,
			"componentType":5123,
			"count":216,
			"type":"SCALAR"
		},
		{
			"bufferView":8,
			"componentType":5126,
			"count":144,
			"max":[
				0.44043970108032227,
				0.09703624993562698,
				-0.22668026387691498
			],
			"min":[
				0.3743884563446045,
				-6.263144314289093e-08,
				-0.2284112423658371
			],
			"type":"VEC3"
		},
		{
			"bufferView":9,
			"componentType":5126,
			"count":144,
			"type":"VEC2"
		},
		{
			"bufferView":10,
			"componentType":5126,
			"count":144,
			"type":"VEC3"
		},
		{
			"bufferView":11,
			"componentType":5123,
			"count":216,
			"type":"SCALAR"
		},
		{
			"bufferView":12,
			"componentType":5126,
			"count":482,
			"max":[
				0.08257200568914413,
				0.0010000000474974513,
				0.0005055429064668715
			],
			"min":[
				0.0006178857875056565,
				-0.0010000000474974513,
				-0.03881446272134781
			],
			"type":"VEC3"
		},
		{
			"bufferView":13,
			"componentType":5126,
			"count":482,
			"type":"VEC2"
		},
		{
			"bufferView":14,
			"componentType":5126,
			"count":482,
			"type":"VEC3"
		},
		{
			"bufferView":15,
			"componentType":5123,
			"count":1392,
			"type":"SCALAR"
		},
		{
			"bufferView":16,
			"componentType":5126,
			"count":728,
			"max":[
				0.08257200568914413,
				0.0010000000474974513,
				0.0005055429064668715
			],
			"min":[
				0.0027524002362042665,
				-0.0010000000474974513,
				-0.03881446272134781
			],
			"type":"VEC3"
		},
		{
			"bufferView":17,
			"componentType":5126,
			"count":728,
			"type":"VEC2"
		},
		{
			"bufferView":18,
			"componentType":5126,
			"count":728,
			"type":"VEC3"
		},
		{
			"bufferView":19,
			"componentType":5123,
			"count":2136,
			"type":"SCALAR"
		},
		{
			"bufferView":20,
			"componentType":5126,
			"count":850,
			"max":[
				0.052688803523778915,
				0.0010000000474974513,
				0.0005055429064668715
			],
			"min":[
				0.002022171625867486,
				-0.0010000000474974513,
				-0.03881446272134781
			],
			"type":"VEC3"
		},
		{
			"bufferView":21,
			"componentType":5126,
			"count":850,
			"type":"VEC2"
		},
		{
			"bufferView":22,
			"componentType":5126,
			"count":850,
			"type":"VEC3"
		},
		{
			"bufferView":23,
			"componentType":5123,
			"count":2520,
			"type":"SCALAR"
		},
		{
			"bufferView":24,
			"componentType":5126,
			"count":763,
			"max":[
				0.363999605178833,
				0.10084444284439087,
				0.24257169663906097
			],
			"min":[
				-0.38917937874794006,
				0.0026694312691688538,
				-0.23060332238674164
			],
			"type":"VEC3"
		},
		{
			"bufferView":25,
			"componentType":5126,
			"count":763,
			"type":"VEC2"
		},
		{
			"bufferView":26,
			"componentType":5126,
			"count":763,
			"type":"VEC3"
		},
		{
			"bufferView":27,
			"componentType":5123,
			"count":2142,
			"type":"SCALAR"
		},
		{
			"bufferView":29,
			"componentType":5126,
			"count":657,
			"max":[
				0.363410085439682,
				0.09925690293312073,
				0.2405192106962204
			],
			"min":[
				-0.3885898292064667,
				0.0027569010853767395,
				-0.22855085134506226
			],
			"type":"VEC3"
		},
		{
			"bufferView":30,
			"componentType":5126,
			"count":657,
			"type":"VEC2"
		},
		{
			"bufferView":31,
			"componentType":5126,
			"count":657,
			"type":"VEC3"
		},
		{
			"bufferView":32,
			"componentType":5123,
			"count":2142,
			"type":"SCALAR"
		},
		{
			"bufferView":33,
			"componentType":5126,
			"count":1174,
			"max":[
				0.36399760842323303,
				0.10084444284439087,
				0.24257169663906097
			],
			"min":[
				-0.3891773521900177,
				0.0026694312691688538,
				-0.23060332238674164
			],
			"type":"VEC3"
		},
		{
			"bufferView":34,
			"componentType":5126,
			"count":1174,
			"type":"VEC2"
		},
		{
			"bufferView":35,
			"componentType":5126,
			"count":1174,
			"type":"VEC3"
		},
		{
			"bufferView":36,
			"componentType":5123,
			"count":2316,
			"type":"SCALAR"
		}
	],
	"bufferViews":[
		{
			"buffer":0,
			"byteLength":1728,
			"byteOffset":0,
			"target":34962
		},
		{
			"buffer":0,
			"byteLength":1152,
			"byteOffset":1728,
			"target":34962
		},
		{
			"buffer":0,
			"byteLength":1728,
			"byteOffset":2880,
			"target":34962
		},
		{
			"buffer":0,
			"byteLength":432,
			"byteOffset":4608,
			"target":34963
		},
		{
			"buffer":0,
			"byteLength":1728,
			"byteOffset":5040,
			"target":34962
		},
		{
			"buffer":0,
			"byteLength":1152,
			"byteOffset":6768,
			"target":34962
		},
		{
			"buffer":0,
			"byteLength":1728,
			"byteOffset":7920,
			"target":34962
		},
		{
			"buffer":0,
			"byteLength":432,
			"byteOffset":9648,
			"target":34963
		},
		{
			"buffer":0,
			"byteLength":1728,
			"byteOffset":10080,
			"target":34962
		},
		{
			"buffer":0,
			"byteLength":1152,
			"byteOffset":11808,
			"target":34962
		},
		{
			"buffer":0,
			"byteLength":1728,
			"byteOffset":12960,
			"target":34962
		},
		{
			"buffer":0,
			"byteLength":432,
			"byteOffset":14688,
			"target":34963
		},
		{
			"buffer":0,
			"byteLength":5784,
			"byteOffset":15120,
			"target":34962
		},
		{
			"buffer":0,
			"byteLength":3856,
			"byteOffset":20904,
			"target":34962
		},
		{
			"buffer":0,
			"byteLength":5784,
			"byteOffset":24760,
			"target":34962
		},
		{
			"buffer":0,
			"byteLength":2784,
			"byteOffset":30544,
			"target":34963
		},
		{
			"buffer":0,
			"byteLength":8736,
			"byteOffset":33328,
			"target":34962
		},
		{
			"buffer":0,
			"byteLength":5824,
			"byteOffset":42064,
			"target":34962
		},
		{
			"buffer":0,
			"byteLength":8736,
			"byteOffset":47888,
			"target":34962
		},
		{
			"buffer":0,
			"byteLength":4272,
			"byteOffset":56624,
			"target":34963
		},
		{
			"buffer":0,
			"byteLength":10200,
			"byteOffset":60896,
			"target":34962
		},
		{
			"buffer":0,
			"byteLength":6800,
			"byteOffset":71096,
			"target":34962
		},
		{
			"buffer":0,
			"byteLength":10200,
			"byteOffset":77896,
			"target":34962
		},
		{
			"buffer":0,
			"byteLength":5040,
			"byteOffset":88096,
			"target":34963
		},
		{
			"buffer":0,
			"byteLength":9156,
			"byteOffset":93136,
			"target":34962
		},
		{
			"buffer":0,
			"byteLength":6104,
			"byteOffset":102292,
			"target":34962
		},
		{
			"buffer":0,
			"byteLength":9156,
			"byteOffset":108396,
			"target":34962
		},
		{
			"buffer":0,
			"byteLength":4284,
			"byteOffset":117552,
			"target":34963
		},
		{
			"buffer":0,
			"byteLength":988791,
			"byteOffset":121836
		},
		{
			"buffer":0,
			"byteLength":7884,
			"byteOffset":1110628,
			"target":34962
		},
		{
			"buffer":0,
			"byteLength":5256,
			"byteOffset":1118512,
			"target":34962
		},
		{
			"buffer":0,
			"byteLength":7884,
			"byteOffset":1123768,
			"target":34962
		},
		{
			"buffer":0,
			"byteLength":4284,
			"byteOffset":1131652,
			"target":34963
		},
		{
			"buffer":0,
			"byteLength":14088,
			"byteOffset":1135936,
			"target":34962
		},
		{
			"buffer":0,
			"byteLength":9392,
			"byteOffset":1150024,
			"target":34962
		},
		{
			"buffer":0,
			"byteLength":14088,
			"byteOffset":1159416,
			"target":34962
		},
		{
			"buffer":0,
			"byteLength":4632,
			"byteOffset":1173504,
			"target":34963
		},
		{
			"buffer":0,
			"byteLength":767,
			"byteOffset":1178136
		}
	],
	"samplers":[
		{
			"magFilter":9729,
			"minFilter":9987
		}
	],
	"buffers":[
		{
			"byteLength":1178904,
			"uri":"data:application/octet-stream;base64,"
		}
	]
}
